<svg xmlns="http://www.w3.org/2000/svg" xmlns:xlink="http://www.w3.org/1999/xlink" width="500" zoomAndPan="magnify" viewBox="0 0 375 374.999991" height="500" preserveAspectRatio="xMidYMid meet" version="1.0"><defs><g/><clipPath id="7e8643582c"><path d="M 187.5 0 C 83.945312 0 0 83.945312 0 187.5 C 0 291.054688 83.945312 375 187.5 375 C 291.054688 375 375 291.054688 375 187.5 C 375 83.945312 291.054688 0 187.5 0 Z M 187.5 0 " clip-rule="nonzero"/></clipPath><clipPath id="daf8c5d4f8"><path d="M 344 185 L 369.527344 185 L 369.527344 256 L 344 256 Z M 344 185 " clip-rule="nonzero"/></clipPath><clipPath id="b5e9dc1cfd"><path d="M 116 345 L 186 345 L 186 367.367188 L 116 367.367188 Z M 116 345 " clip-rule="nonzero"/></clipPath><clipPath id="0d9c95d05a"><path d="M 5.777344 117 L 25 117 L 25 186 L 5.777344 186 Z M 5.777344 117 " clip-rule="nonzero"/></clipPath><clipPath id="ea5759d4e4"><path d="M 185 7.367188 L 255 7.367188 L 255 24 L 185 24 Z M 185 7.367188 " clip-rule="nonzero"/></clipPath></defs><g clip-path="url(#7e8643582c)"><rect x="-37.5" width="450" fill="#000000" y="-37.499999" height="449.999989" fill-opacity="1"/></g><path fill="#ffffff" d="M 185.957031 318.214844 C 150.632812 318.214844 117.417969 304.457031 92.429688 279.46875 C 67.460938 254.480469 53.683594 221.265625 53.683594 185.941406 C 53.683594 150.617188 67.441406 117.402344 92.429688 92.414062 C 117.417969 67.425781 150.632812 53.691406 185.957031 53.691406 C 221.28125 53.691406 254.496094 67.445312 279.484375 92.433594 C 304.472656 117.421875 318.226562 150.617188 318.226562 185.960938 C 318.226562 221.304688 304.472656 254.5 279.484375 279.488281 C 254.496094 304.4375 221.28125 318.214844 185.957031 318.214844 Z M 185.957031 55.859375 C 114.214844 55.859375 55.855469 114.21875 55.855469 185.960938 C 55.855469 257.703125 114.214844 316.0625 185.957031 316.0625 C 257.699219 316.0625 316.058594 257.703125 316.058594 185.960938 C 316.039062 114.21875 257.679688 55.859375 185.957031 55.859375 Z M 185.957031 55.859375 " fill-opacity="1" fill-rule="nonzero"/><path fill="#ffffff" d="M 185.957031 353.167969 C 141.292969 353.167969 99.304688 335.777344 67.714844 304.183594 C 36.140625 272.613281 18.730469 230.605469 18.730469 185.941406 C 18.730469 141.277344 36.121094 99.292969 67.714844 67.699219 C 99.285156 36.125 141.292969 18.738281 185.957031 18.738281 C 230.621094 18.738281 272.605469 36.125 304.199219 67.71875 C 335.773438 99.292969 353.179688 141.296875 353.179688 185.960938 C 353.179688 230.625 335.792969 272.613281 304.199219 304.203125 C 272.605469 335.777344 230.621094 353.167969 185.957031 353.167969 Z M 185.957031 21.433594 C 95.242188 21.433594 21.449219 95.226562 21.449219 185.941406 C 21.449219 276.65625 95.242188 350.449219 185.957031 350.449219 C 276.671875 350.449219 350.464844 276.65625 350.464844 185.941406 C 350.464844 95.226562 276.671875 21.433594 185.957031 21.433594 Z M 185.957031 21.433594 " fill-opacity="1" fill-rule="nonzero"/><path fill="#ffffff" d="M 185.957031 345.507812 C 180.71875 345.507812 175.464844 345.253906 170.304688 344.746094 L 172.496094 322.179688 C 176.929688 322.609375 181.460938 322.824219 185.9375 322.824219 C 185.9375 322.824219 185.957031 322.824219 185.957031 322.824219 C 188.144531 322.824219 190.351562 322.765625 192.539062 322.667969 L 193.613281 345.3125 C 191.074219 345.449219 188.515625 345.507812 185.957031 345.507812 Z M 200.609375 344.84375 L 198.558594 322.257812 C 205.199219 321.652344 211.84375 320.558594 218.308594 318.996094 L 223.644531 341.035156 C 216.101562 342.871094 208.347656 344.140625 200.609375 344.84375 Z M 163.351562 343.925781 C 155.652344 342.832031 147.972656 341.152344 140.53125 338.960938 L 146.976562 317.21875 C 153.347656 319.113281 159.929688 320.539062 166.535156 321.476562 Z M 230.425781 339.234375 L 224.113281 317.453125 C 230.503906 315.59375 236.8125 313.25 242.871094 310.476562 L 252.304688 331.089844 C 245.234375 334.332031 237.867188 337.066406 230.425781 339.234375 Z M 133.847656 336.8125 C 126.503906 334.273438 119.292969 331.167969 112.375 327.570312 L 122.847656 307.46875 C 128.769531 310.554688 134.960938 313.210938 141.253906 315.378906 Z M 258.597656 328.039062 L 248.261719 307.859375 C 254.183594 304.828125 259.945312 301.332031 265.359375 297.445312 L 278.527344 315.90625 C 272.214844 320.441406 265.515625 324.503906 258.597656 328.039062 Z M 106.242188 324.210938 C 99.519531 320.324219 93.035156 315.90625 86.9375 311.082031 L 101.023438 293.300781 C 106.261719 297.445312 111.828125 301.234375 117.59375 304.574219 Z M 284.152344 311.726562 L 270.183594 293.871094 C 275.4375 289.765625 280.421875 285.234375 285.03125 280.40625 L 301.445312 296.058594 C 296.070312 301.683594 290.269531 306.960938 284.152344 311.726562 Z M 81.527344 306.609375 C 75.664062 301.527344 70.117188 295.960938 65.035156 290.078125 L 82.210938 275.269531 C 86.566406 280.308594 91.316406 285.097656 96.355469 289.453125 Z M 306.171875 290.878906 L 289.097656 275.972656 C 293.492188 270.953125 297.535156 265.558594 301.152344 259.972656 L 320.21875 272.242188 C 316 278.746094 311.269531 285.039062 306.171875 290.878906 Z M 60.582031 284.6875 C 55.777344 278.589844 51.378906 272.085938 47.511719 265.363281 L 67.164062 254.070312 C 70.488281 259.835938 74.257812 265.421875 78.378906 270.660156 Z M 323.875 266.242188 L 304.296875 254.8125 C 307.65625 249.050781 310.625 242.992188 313.089844 236.820312 L 334.128906 245.257812 C 331.238281 252.46875 327.78125 259.523438 323.875 266.242188 Z M 44.171875 259.210938 C 40.59375 252.3125 37.507812 245.082031 34.988281 237.738281 L 56.441406 230.390625 C 58.589844 236.683594 61.246094 242.875 64.3125 248.796875 Z M 336.59375 238.675781 L 315.199219 231.191406 C 317.40625 224.921875 319.144531 218.414062 320.394531 211.867188 L 342.667969 216.128906 C 341.203125 223.769531 339.152344 231.347656 336.59375 238.675781 Z M 32.859375 231.054688 C 30.667969 223.613281 29.007812 215.933594 27.933594 208.234375 L 50.382812 205.089844 C 51.300781 211.691406 52.726562 218.277344 54.601562 224.648438 Z M 343.839844 209.210938 L 321.410156 205.929688 C 322.367188 199.363281 322.855469 192.644531 322.855469 185.941406 L 322.855469 185.648438 L 345.519531 185.589844 L 345.519531 185.941406 C 345.519531 193.738281 344.953125 201.574219 343.839844 209.210938 Z M 27.113281 201.28125 C 26.625 196.21875 26.390625 191.0625 26.390625 185.960938 C 26.390625 183.304688 26.449219 180.609375 26.585938 177.972656 L 49.230469 179.085938 C 49.113281 181.351562 49.054688 183.675781 49.054688 185.960938 C 49.054688 190.359375 49.269531 194.792969 49.679688 199.128906 Z M 322.699219 179.632812 C 322.386719 172.949219 321.605469 166.269531 320.335938 159.742188 L 342.589844 155.425781 C 344.054688 163.023438 344.992188 170.820312 345.34375 178.597656 Z M 49.660156 173.066406 L 27.09375 170.957031 C 27.816406 163.199219 29.105469 155.464844 30.960938 147.941406 L 52.980469 153.3125 C 51.378906 159.78125 50.265625 166.425781 49.660156 173.066406 Z M 319.066406 153.863281 C 317.503906 147.394531 315.453125 140.964844 312.972656 134.792969 L 333.992188 126.3125 C 336.90625 133.523438 339.289062 141.003906 341.105469 148.566406 Z M 54.523438 147.53125 L 32.761719 141.179688 C 34.929688 133.71875 37.683594 126.351562 40.945312 119.300781 L 61.539062 128.773438 C 58.746094 134.8125 56.382812 141.140625 54.523438 147.53125 Z M 310.605469 129.28125 C 307.851562 123.226562 304.628906 117.324219 300.996094 111.71875 L 320.042969 99.410156 C 324.265625 105.933594 328.035156 112.832031 331.238281 119.886719 Z M 64.175781 123.363281 L 44.011719 112.988281 C 47.570312 106.089844 51.671875 99.390625 56.207031 93.058594 L 74.628906 106.265625 C 70.742188 111.679688 67.222656 117.441406 64.175781 123.363281 Z M 297.632812 106.753906 C 293.785156 101.324219 289.488281 96.128906 284.875 91.320312 L 301.25 75.652344 C 306.621094 81.257812 311.625 87.316406 316.117188 93.644531 Z M 78.242188 101.441406 L 60.40625 87.433594 C 65.191406 81.335938 70.488281 75.515625 76.113281 70.179688 L 91.726562 86.632812 C 86.898438 91.222656 82.347656 96.207031 78.242188 101.441406 Z M 280.617188 87.0625 C 275.789062 82.449219 270.59375 78.152344 265.183594 74.285156 L 278.3125 55.800781 C 284.640625 60.292969 290.679688 65.296875 296.304688 70.667969 Z M 96.179688 82.585938 L 81.3125 65.472656 C 87.171875 60.371094 93.464844 55.664062 99.988281 51.484375 L 112.21875 70.570312 C 106.613281 74.1875 101.21875 78.210938 96.179688 82.585938 Z M 260.199219 70.902344 C 254.59375 67.289062 248.691406 64.046875 242.636719 61.292969 L 252.03125 40.660156 C 259.105469 43.882812 265.984375 47.652344 272.527344 51.875 Z M 117.339844 67.464844 L 105.96875 47.847656 C 112.6875 43.941406 119.742188 40.523438 126.953125 37.652344 L 135.332031 58.710938 C 129.160156 61.175781 123.101562 64.105469 117.339844 67.464844 Z M 237.085938 58.925781 C 230.914062 56.445312 224.484375 54.394531 217.996094 52.832031 L 223.292969 30.792969 C 230.855469 32.609375 238.335938 34.992188 245.566406 37.90625 Z M 140.960938 56.621094 L 133.515625 35.207031 C 140.84375 32.648438 148.441406 30.636719 156.082031 29.191406 L 160.300781 51.464844 C 153.757812 52.695312 147.25 54.433594 140.960938 56.621094 Z M 212.136719 51.5625 C 205.609375 50.292969 198.929688 49.511719 192.246094 49.199219 L 193.261719 26.554688 C 201.039062 26.90625 208.835938 27.824219 216.433594 29.308594 Z M 166.242188 50.46875 L 163 28.019531 C 170.539062 26.925781 178.277344 26.378906 185.957031 26.378906 L 186.289062 26.378906 L 186.230469 49.039062 L 185.957031 49.039062 C 179.351562 49.058594 172.710938 49.53125 166.242188 50.46875 Z M 166.242188 50.46875 " fill-opacity="1" fill-rule="nonzero"/><g clip-path="url(#daf8c5d4f8)"><path fill="#ffffff" d="M 369.179688 185.941406 C 369.121094 197.898438 367.890625 209.855469 365.507812 221.578125 C 363.125 233.300781 359.589844 244.789062 354.957031 255.808594 L 344.191406 251.355469 C 348.414062 241 351.597656 230.234375 353.6875 219.253906 C 355.796875 208.273438 356.792969 197.097656 356.734375 185.941406 Z M 369.179688 185.941406 " fill-opacity="1" fill-rule="nonzero"/></g><path fill="#ffffff" d="M 344.210938 277.320312 C 332.15625 297.933594 316.019531 316.101562 297.046875 330.523438 L 290.582031 322.121094 C 308.300781 308.328125 323.269531 291.074219 334.34375 271.617188 Z M 344.210938 277.320312 " fill-opacity="1" fill-rule="nonzero"/><path fill="#ffffff" d="M 277.082031 343.769531 C 266.746094 349.667969 255.824219 354.554688 244.550781 358.324219 C 233.277344 362.09375 221.613281 364.734375 209.832031 366.21875 L 208.582031 356.722656 C 219.738281 355.199219 230.71875 352.5625 241.34375 348.886719 C 251.972656 345.214844 262.210938 340.488281 271.902344 334.800781 Z M 277.082031 343.769531 " fill-opacity="1" fill-rule="nonzero"/><g clip-path="url(#b5e9dc1cfd)"><path fill="#ffffff" d="M 185.957031 367.625 C 174.097656 367.566406 162.238281 366.355469 150.613281 363.992188 C 138.988281 361.625 127.597656 358.128906 116.675781 353.539062 L 119.9375 345.644531 C 130.390625 349.902344 141.253906 353.109375 152.332031 355.238281 C 163.410156 357.367188 174.683594 358.382812 185.957031 358.324219 Z M 185.957031 367.625 " fill-opacity="1" fill-rule="nonzero"/></g><path fill="#ffffff" d="M 95.359375 342.871094 C 74.921875 330.914062 56.910156 314.910156 42.605469 296.117188 L 48.546875 291.542969 C 62.457031 309.421875 79.867188 324.523438 99.5 335.71875 Z M 95.359375 342.871094 " fill-opacity="1" fill-rule="nonzero"/><path fill="#ffffff" d="M 29.476562 276.304688 C 23.617188 266.046875 18.769531 255.242188 15.039062 244.046875 C 11.308594 232.871094 8.6875 221.304688 7.203125 209.621094 L 13.613281 208.78125 C 15.15625 220.035156 17.8125 231.113281 21.527344 241.839844 C 25.238281 252.566406 30.003906 262.902344 35.730469 272.671875 Z M 29.476562 276.304688 " fill-opacity="1" fill-rule="nonzero"/><g clip-path="url(#0d9c95d05a)"><path fill="#ffffff" d="M 5.816406 185.960938 C 5.875 174.199219 7.085938 162.4375 9.433594 150.910156 C 11.777344 139.382812 15.253906 128.109375 19.785156 117.265625 L 24.808594 119.339844 C 20.507812 129.886719 17.265625 140.847656 15.136719 152.023438 C 12.988281 163.199219 11.972656 174.570312 12.03125 185.941406 Z M 5.816406 185.960938 " fill-opacity="1" fill-rule="nonzero"/></g><path fill="#ffffff" d="M 30.355469 96.148438 C 42.214844 75.886719 58.0625 58.027344 76.71875 43.84375 L 79.398438 47.320312 C 61.363281 61.351562 46.125 78.933594 34.832031 98.726562 Z M 30.355469 96.148438 " fill-opacity="1" fill-rule="nonzero"/><path fill="#ffffff" d="M 96.375 30.832031 C 106.535156 25.027344 117.261719 20.222656 128.359375 16.53125 C 139.457031 12.835938 150.886719 10.238281 162.472656 8.773438 L 162.902344 12.113281 C 151.550781 13.675781 140.355469 16.355469 129.550781 20.085938 C 118.746094 23.835938 108.292969 28.644531 98.445312 34.425781 Z M 96.375 30.832031 " fill-opacity="1" fill-rule="nonzero"/><g clip-path="url(#ea5759d4e4)"><path fill="#ffffff" d="M 185.917969 7.367188 C 197.582031 7.425781 209.246094 8.617188 220.65625 10.941406 C 232.085938 13.265625 243.261719 16.707031 254.007812 21.21875 L 253.105469 23.367188 C 242.460938 19.03125 231.402344 15.769531 220.128906 13.617188 C 208.855469 11.449219 197.386719 10.414062 185.917969 10.472656 Z M 185.917969 7.367188 " fill-opacity="1" fill-rule="nonzero"/></g><path fill="#ffffff" d="M 274.96875 31.691406 C 295.054688 43.453125 312.777344 59.160156 326.824219 77.644531 L 325.789062 78.425781 C 311.625 60.234375 293.902344 44.859375 273.914062 33.46875 Z M 274.96875 31.691406 " fill-opacity="1" fill-rule="nonzero"/><path fill="#ffffff" d="M 339.71875 97.125 C 345.480469 107.203125 350.230469 117.832031 353.902344 128.8125 C 357.574219 139.8125 360.15625 151.144531 361.601562 162.632812 L 361.347656 162.671875 C 359.785156 151.222656 357.085938 139.929688 353.296875 129.027344 C 349.527344 118.125 344.660156 107.597656 338.839844 97.652344 Z M 339.71875 97.125 " fill-opacity="1" fill-rule="nonzero"/><g fill="#d9d9d9" fill-opacity="0.4"><g transform="translate(77.563107, 260.203476)"><g><path d="M 73.703125 -3.234375 L 61.25 -40.09375 L 27.46875 -40.09375 L 14.328125 -3.234375 L 27.125 -3.234375 L 27.125 0 L 1.03125 0 L 1.03125 -3.234375 L 9.046875 -3.234375 L 52.546875 -120.46875 L 66.546875 -120.46875 L 109.546875 -3.234375 L 117.390625 -3.234375 L 117.390625 0 L 61.59375 0 L 61.59375 -3.234375 Z M 45.046875 -88.546875 L 29 -43.84375 L 59.890625 -43.84375 Z M 45.046875 -88.546875 "/></g></g></g><g fill="#d9d9d9" fill-opacity="0.4"><g transform="translate(195.970673, 260.203476)"><g><path d="M 108.515625 -119.4375 L 110.21875 -76.609375 L 106.984375 -76.609375 C 101.972656 -91.734375 97.535156 -102.054688 93.671875 -107.578125 C 89.804688 -113.097656 84.234375 -115.859375 76.953125 -115.859375 L 74.90625 -115.859375 L 74.90625 -3.578125 L 89.40625 -3.578125 L 89.40625 0 L 27.125 0 L 27.125 -3.578125 L 41.625 -3.578125 L 41.625 -115.859375 L 39.421875 -115.859375 C 32.140625 -115.859375 26.503906 -112.984375 22.515625 -107.234375 C 18.535156 -101.492188 14.160156 -91.285156 9.390625 -76.609375 L 6.140625 -76.609375 L 7.84375 -119.4375 Z M 108.515625 -119.4375 "/></g></g></g><g fill="#ffffff" fill-opacity="1"><g transform="translate(70.022033, 252.662403)"><g><path d="M 73.703125 -3.234375 L 61.25 -40.09375 L 27.46875 -40.09375 L 14.328125 -3.234375 L 27.125 -3.234375 L 27.125 0 L 1.03125 0 L 1.03125 -3.234375 L 9.046875 -3.234375 L 52.546875 -120.46875 L 66.546875 -120.46875 L 109.546875 -3.234375 L 117.390625 -3.234375 L 117.390625 0 L 61.59375 0 L 61.59375 -3.234375 Z M 45.046875 -88.546875 L 29 -43.84375 L 59.890625 -43.84375 Z M 45.046875 -88.546875 "/></g></g></g><g fill="#ffffff" fill-opacity="1"><g transform="translate(188.429599, 252.662403)"><g><path d="M 108.515625 -119.4375 L 110.21875 -76.609375 L 106.984375 -76.609375 C 101.972656 -91.734375 97.535156 -102.054688 93.671875 -107.578125 C 89.804688 -113.097656 84.234375 -115.859375 76.953125 -115.859375 L 74.90625 -115.859375 L 74.90625 -3.578125 L 89.40625 -3.578125 L 89.40625 0 L 27.125 0 L 27.125 -3.578125 L 41.625 -3.578125 L 41.625 -115.859375 L 39.421875 -115.859375 C 32.140625 -115.859375 26.503906 -112.984375 22.515625 -107.234375 C 18.535156 -101.492188 14.160156 -91.285156 9.390625 -76.609375 L 6.140625 -76.609375 L 7.84375 -119.4375 Z M 108.515625 -119.4375 "/></g></g></g></svg>