<svg xmlns="http://www.w3.org/2000/svg" xmlns:xlink="http://www.w3.org/1999/xlink" width="500" zoomAndPan="magnify" viewBox="0 0 375 374.999991" height="500" preserveAspectRatio="xMidYMid meet" version="1.0"><defs><g/><clipPath id="b41ec457e9"><path d="M 114 350 L 186 350 L 186 373.640625 L 114 373.640625 Z M 114 350 " clip-rule="nonzero"/></clipPath><clipPath id="d143a045c6"><path d="M 185 1.640625 L 257 1.640625 L 257 19 L 185 19 Z M 185 1.640625 " clip-rule="nonzero"/></clipPath></defs><path fill="#ffffff" d="M 185.90625 322.375 C 149.460938 322.375 115.1875 308.183594 89.40625 282.398438 C 63.640625 256.617188 49.429688 222.34375 49.429688 185.898438 C 49.429688 149.449219 63.621094 115.179688 89.40625 89.394531 C 115.1875 63.609375 149.460938 49.4375 185.90625 49.4375 C 222.355469 49.4375 256.625 63.628906 282.410156 89.414062 C 308.195312 115.199219 322.386719 149.449219 322.386719 185.917969 C 322.386719 222.386719 308.195312 256.636719 282.410156 282.421875 C 256.625 308.164062 222.355469 322.375 185.90625 322.375 Z M 185.90625 51.675781 C 111.882812 51.675781 51.667969 111.890625 51.667969 185.917969 C 51.667969 259.941406 111.882812 320.160156 185.90625 320.160156 C 259.933594 320.160156 320.148438 259.941406 320.148438 185.917969 C 320.128906 111.890625 259.914062 51.675781 185.90625 51.675781 Z M 185.90625 51.675781 " fill-opacity="1" fill-rule="nonzero"/><path fill="#ffffff" d="M 185.90625 358.441406 C 139.824219 358.441406 96.5 340.5 63.902344 307.902344 C 31.324219 275.324219 13.363281 231.980469 13.363281 185.898438 C 13.363281 139.8125 31.304688 96.492188 63.902344 63.894531 C 96.480469 31.316406 139.824219 13.375 185.90625 13.375 C 231.992188 13.375 275.3125 31.316406 307.910156 63.914062 C 340.488281 96.492188 358.453125 139.832031 358.453125 185.917969 C 358.453125 232 340.507812 275.324219 307.910156 307.921875 C 275.3125 340.5 231.992188 358.441406 185.90625 358.441406 Z M 185.90625 16.15625 C 92.308594 16.15625 16.164062 92.296875 16.164062 185.898438 C 16.164062 279.496094 92.308594 355.640625 185.90625 355.640625 C 279.507812 355.640625 355.648438 279.496094 355.648438 185.898438 C 355.648438 92.296875 279.507812 16.15625 185.90625 16.15625 Z M 185.90625 16.15625 " fill-opacity="1" fill-rule="nonzero"/><path fill="#ffffff" d="M 185.90625 350.539062 C 180.503906 350.539062 175.082031 350.277344 169.757812 349.753906 L 172.019531 326.46875 C 176.59375 326.914062 181.269531 327.132812 185.886719 327.132812 C 185.886719 327.132812 185.90625 327.132812 185.90625 327.132812 C 188.164062 327.132812 190.441406 327.074219 192.699219 326.972656 L 193.808594 350.335938 C 191.1875 350.476562 188.546875 350.539062 185.90625 350.539062 Z M 201.027344 349.851562 L 198.910156 326.550781 C 205.765625 325.925781 212.617188 324.796875 219.292969 323.183594 L 224.792969 345.921875 C 217.011719 347.816406 209.011719 349.128906 201.027344 349.851562 Z M 162.582031 348.90625 C 154.640625 347.777344 146.71875 346.042969 139.035156 343.785156 L 145.6875 321.347656 C 152.261719 323.304688 159.054688 324.773438 165.867188 325.742188 Z M 231.789062 344.066406 L 225.277344 321.589844 C 231.871094 319.675781 238.382812 317.253906 244.632812 314.394531 L 254.367188 335.660156 C 247.070312 339.007812 239.472656 341.828125 231.789062 344.066406 Z M 132.140625 341.566406 C 124.5625 338.949219 117.125 335.742188 109.988281 332.03125 L 120.792969 311.289062 C 126.902344 314.472656 133.292969 317.214844 139.78125 319.453125 Z M 260.859375 332.515625 L 250.195312 311.691406 C 256.304688 308.566406 262.25 304.957031 267.835938 300.945312 L 281.421875 319.996094 C 274.910156 324.675781 267.996094 328.867188 260.859375 332.515625 Z M 103.65625 328.566406 C 96.722656 324.554688 90.03125 319.996094 83.738281 315.019531 L 98.273438 296.671875 C 103.675781 300.945312 109.421875 304.859375 115.371094 308.304688 Z M 287.226562 315.683594 L 272.8125 297.257812 C 278.238281 293.023438 283.378906 288.347656 288.136719 283.367188 L 305.070312 299.515625 C 299.527344 305.320312 293.539062 310.765625 287.226562 315.683594 Z M 78.15625 310.402344 C 72.109375 305.160156 66.382812 299.414062 61.140625 293.347656 L 78.859375 278.066406 C 83.355469 283.265625 88.253906 288.207031 93.457031 292.703125 Z M 309.949219 294.171875 L 292.328125 278.792969 C 296.863281 273.609375 301.039062 268.046875 304.765625 262.28125 L 324.441406 274.941406 C 320.089844 281.65625 315.210938 288.144531 309.949219 294.171875 Z M 56.542969 287.78125 C 51.585938 281.492188 47.050781 274.78125 43.058594 267.84375 L 63.339844 256.191406 C 66.765625 262.140625 70.65625 267.90625 74.910156 273.308594 Z M 328.210938 268.753906 L 308.011719 256.960938 C 311.480469 251.011719 314.542969 244.761719 317.085938 238.390625 L 338.796875 247.101562 C 335.8125 254.539062 332.246094 261.816406 328.210938 268.753906 Z M 39.609375 261.496094 C 35.921875 254.378906 32.738281 246.917969 30.136719 239.339844 L 52.269531 231.761719 C 54.488281 238.25 57.230469 244.640625 60.394531 250.75 Z M 341.335938 240.308594 L 319.261719 232.585938 C 321.539062 226.117188 323.332031 219.402344 324.625 212.648438 L 347.605469 217.042969 C 346.09375 224.925781 343.976562 232.746094 341.335938 240.308594 Z M 27.9375 232.445312 C 25.679688 224.765625 23.96875 216.84375 22.859375 208.898438 L 46.023438 205.652344 C 46.96875 212.46875 48.441406 219.261719 50.375 225.832031 Z M 348.816406 209.90625 L 325.671875 206.519531 C 326.660156 199.746094 327.164062 192.8125 327.164062 185.898438 L 327.164062 185.59375 L 350.550781 185.535156 L 350.550781 185.898438 C 350.550781 193.941406 349.964844 202.023438 348.816406 209.90625 Z M 22.011719 201.722656 C 21.507812 196.5 21.265625 191.179688 21.265625 185.917969 C 21.265625 183.175781 21.328125 180.394531 21.46875 177.671875 L 44.832031 178.820312 C 44.710938 181.160156 44.652344 183.558594 44.652344 185.917969 C 44.652344 190.453125 44.871094 195.03125 45.296875 199.503906 Z M 327.003906 179.386719 C 326.679688 172.492188 325.875 165.597656 324.5625 158.863281 L 347.523438 154.410156 C 349.035156 162.25 350.003906 170.292969 350.367188 178.316406 Z M 45.277344 172.613281 L 21.992188 170.433594 C 22.738281 162.433594 24.066406 154.449219 25.984375 146.6875 L 48.703125 152.230469 C 47.050781 158.902344 45.902344 165.757812 45.277344 172.613281 Z M 323.253906 152.796875 C 321.640625 146.121094 319.523438 139.492188 316.964844 133.121094 L 338.65625 124.371094 C 341.660156 131.808594 344.117188 139.53125 345.992188 147.332031 Z M 50.296875 146.265625 L 27.835938 139.710938 C 30.074219 132.011719 32.917969 124.410156 36.285156 117.132812 L 57.53125 126.910156 C 54.648438 133.140625 52.210938 139.671875 50.296875 146.265625 Z M 314.523438 127.433594 C 311.683594 121.1875 308.355469 115.097656 304.605469 109.3125 L 324.261719 96.613281 C 328.617188 103.34375 332.507812 110.460938 335.8125 117.738281 Z M 60.253906 121.328125 L 39.449219 110.621094 C 43.117188 103.507812 47.351562 96.589844 52.027344 90.058594 L 71.039062 103.6875 C 67.027344 109.273438 63.398438 115.21875 60.253906 121.328125 Z M 301.136719 104.191406 C 297.167969 98.585938 292.730469 93.226562 287.972656 88.265625 L 304.867188 72.097656 C 310.410156 77.882812 315.574219 84.132812 320.210938 90.664062 Z M 74.769531 98.707031 L 56.363281 84.253906 C 61.300781 77.964844 66.765625 71.957031 72.570312 66.453125 L 88.679688 83.425781 C 83.699219 88.164062 79.003906 93.304688 74.769531 98.707031 Z M 283.578125 83.871094 C 278.601562 79.113281 273.238281 74.679688 267.652344 70.6875 L 281.199219 51.617188 C 287.730469 56.253906 293.960938 61.414062 299.765625 66.957031 Z M 93.273438 79.253906 L 77.933594 61.59375 C 83.980469 56.332031 90.472656 51.472656 97.207031 47.160156 L 109.824219 66.855469 C 104.039062 70.585938 98.476562 74.738281 93.273438 79.253906 Z M 262.511719 67.199219 C 256.726562 63.46875 250.640625 60.121094 244.390625 57.28125 L 254.085938 35.992188 C 261.382812 39.320312 268.480469 43.210938 275.234375 47.5625 Z M 115.109375 63.652344 L 103.375 43.410156 C 110.308594 39.378906 117.585938 35.851562 125.027344 32.886719 L 133.675781 54.621094 C 127.304688 57.160156 121.054688 60.183594 115.109375 63.652344 Z M 238.664062 54.839844 C 232.292969 52.28125 225.660156 50.164062 218.96875 48.550781 L 224.433594 25.8125 C 232.234375 27.6875 239.953125 30.144531 247.414062 33.148438 Z M 139.480469 52.460938 L 131.800781 30.367188 C 139.359375 27.726562 147.203125 25.652344 155.082031 24.160156 L 159.4375 47.140625 C 152.683594 48.410156 145.972656 50.203125 139.480469 52.460938 Z M 212.921875 47.242188 C 206.1875 45.929688 199.292969 45.125 192.398438 44.800781 L 193.445312 21.4375 C 201.46875 21.800781 209.515625 22.746094 217.355469 24.28125 Z M 165.566406 46.113281 L 162.21875 22.949219 C 170 21.820312 177.984375 21.253906 185.90625 21.253906 L 186.25 21.253906 L 186.191406 44.640625 L 185.90625 44.640625 C 179.09375 44.660156 172.238281 45.144531 165.566406 46.113281 Z M 165.566406 46.113281 " fill-opacity="1" fill-rule="nonzero"/><path fill="#ffffff" d="M 374.960938 185.898438 C 374.902344 198.234375 373.632812 210.574219 371.171875 222.667969 C 368.710938 234.761719 365.0625 246.617188 360.285156 257.988281 L 349.179688 253.390625 C 353.53125 242.707031 356.820312 231.597656 358.976562 220.269531 C 361.152344 208.941406 362.179688 197.410156 362.121094 185.898438 Z M 374.960938 185.898438 " fill-opacity="1" fill-rule="nonzero"/><path fill="#ffffff" d="M 349.199219 280.183594 C 336.761719 301.449219 320.109375 320.199219 300.535156 335.078125 L 293.859375 326.40625 C 312.144531 312.175781 327.585938 294.375 339.019531 274.296875 Z M 349.199219 280.183594 " fill-opacity="1" fill-rule="nonzero"/><path fill="#ffffff" d="M 279.929688 348.746094 C 269.265625 354.832031 257.996094 359.871094 246.367188 363.761719 C 234.734375 367.652344 222.699219 370.375 210.542969 371.90625 L 209.253906 362.109375 C 220.761719 360.539062 232.09375 357.816406 243.058594 354.027344 C 254.027344 350.238281 264.589844 345.359375 274.589844 339.492188 Z M 279.929688 348.746094 " fill-opacity="1" fill-rule="nonzero"/><g clip-path="url(#b41ec457e9)"><path fill="#ffffff" d="M 185.90625 373.359375 C 173.671875 373.300781 161.433594 372.050781 149.4375 369.609375 C 137.445312 367.171875 125.691406 363.5625 114.421875 358.824219 L 117.789062 350.679688 C 128.574219 355.074219 139.78125 358.382812 151.214844 360.578125 C 162.644531 362.777344 174.277344 363.824219 185.90625 363.761719 Z M 185.90625 373.359375 " fill-opacity="1" fill-rule="nonzero"/></g><path fill="#ffffff" d="M 92.429688 347.816406 C 71.339844 335.480469 52.753906 318.96875 38 299.574219 L 44.125 294.859375 C 58.480469 313.304688 76.441406 328.886719 96.703125 340.4375 Z M 92.429688 347.816406 " fill-opacity="1" fill-rule="nonzero"/><path fill="#ffffff" d="M 24.449219 279.132812 C 18.402344 268.550781 13.402344 257.402344 9.554688 245.851562 C 5.703125 234.320312 3 222.386719 1.46875 210.332031 L 8.082031 209.464844 C 9.675781 221.074219 12.414062 232.503906 16.246094 243.574219 C 20.078125 254.640625 24.996094 265.304688 30.902344 275.386719 Z M 24.449219 279.132812 " fill-opacity="1" fill-rule="nonzero"/><path fill="#ffffff" d="M 0.0390625 185.917969 C 0.0976562 173.78125 1.347656 161.644531 3.765625 149.75 C 6.1875 137.859375 9.773438 126.226562 14.453125 115.035156 L 19.632812 117.175781 C 15.199219 128.058594 11.851562 139.371094 9.652344 150.902344 C 7.4375 162.433594 6.386719 174.164062 6.449219 185.898438 Z M 0.0390625 185.917969 " fill-opacity="1" fill-rule="nonzero"/><path fill="#ffffff" d="M 25.359375 93.246094 C 37.59375 72.339844 53.945312 53.914062 73.195312 39.277344 L 75.957031 42.867188 C 57.351562 57.339844 41.625 75.484375 29.976562 95.90625 Z M 25.359375 93.246094 " fill-opacity="1" fill-rule="nonzero"/><path fill="#ffffff" d="M 93.476562 25.851562 C 103.960938 19.863281 115.027344 14.90625 126.476562 11.09375 C 137.929688 7.285156 149.722656 4.605469 161.675781 3.09375 L 162.121094 6.539062 C 150.40625 8.152344 138.855469 10.914062 127.707031 14.765625 C 116.558594 18.636719 105.773438 23.59375 95.613281 29.5625 Z M 93.476562 25.851562 " fill-opacity="1" fill-rule="nonzero"/><g clip-path="url(#d143a045c6)"><path fill="#ffffff" d="M 185.867188 1.640625 C 197.902344 1.699219 209.9375 2.929688 221.710938 5.328125 C 233.503906 7.730469 245.035156 11.277344 256.121094 15.933594 L 255.195312 18.152344 C 244.207031 13.675781 232.796875 10.308594 221.167969 8.089844 C 209.535156 5.855469 197.699219 4.785156 185.867188 4.847656 Z M 185.867188 1.640625 " fill-opacity="1" fill-rule="nonzero"/></g><path fill="#ffffff" d="M 277.753906 26.738281 C 298.476562 38.875 316.761719 55.082031 331.257812 74.152344 L 330.1875 74.960938 C 315.574219 56.191406 297.289062 40.328125 276.664062 28.574219 Z M 277.753906 26.738281 " fill-opacity="1" fill-rule="nonzero"/><path fill="#ffffff" d="M 344.5625 94.253906 C 350.507812 104.65625 355.40625 115.621094 359.199219 126.953125 C 362.988281 138.300781 365.648438 149.992188 367.140625 161.847656 L 366.878906 161.886719 C 365.265625 150.074219 362.484375 138.421875 358.574219 127.171875 C 354.683594 115.925781 349.660156 105.058594 343.65625 94.796875 Z M 344.5625 94.253906 " fill-opacity="1" fill-rule="nonzero"/><g fill="#d9d9d9" fill-opacity="0.4"><g transform="translate(77.563107, 260.203476)"><g><path d="M 73.703125 -3.234375 L 61.25 -40.09375 L 27.46875 -40.09375 L 14.328125 -3.234375 L 27.125 -3.234375 L 27.125 0 L 1.03125 0 L 1.03125 -3.234375 L 9.046875 -3.234375 L 52.546875 -120.46875 L 66.546875 -120.46875 L 109.546875 -3.234375 L 117.390625 -3.234375 L 117.390625 0 L 61.59375 0 L 61.59375 -3.234375 Z M 45.046875 -88.546875 L 29 -43.84375 L 59.890625 -43.84375 Z M 45.046875 -88.546875 "/></g></g></g><g fill="#d9d9d9" fill-opacity="0.4"><g transform="translate(195.970673, 260.203476)"><g><path d="M 108.515625 -119.4375 L 110.21875 -76.609375 L 106.984375 -76.609375 C 101.972656 -91.734375 97.535156 -102.054688 93.671875 -107.578125 C 89.804688 -113.097656 84.234375 -115.859375 76.953125 -115.859375 L 74.90625 -115.859375 L 74.90625 -3.578125 L 89.40625 -3.578125 L 89.40625 0 L 27.125 0 L 27.125 -3.578125 L 41.625 -3.578125 L 41.625 -115.859375 L 39.421875 -115.859375 C 32.140625 -115.859375 26.503906 -112.984375 22.515625 -107.234375 C 18.535156 -101.492188 14.160156 -91.285156 9.390625 -76.609375 L 6.140625 -76.609375 L 7.84375 -119.4375 Z M 108.515625 -119.4375 "/></g></g></g><g fill="#ffffff" fill-opacity="1"><g transform="translate(70.022033, 252.662403)"><g><path d="M 73.703125 -3.234375 L 61.25 -40.09375 L 27.46875 -40.09375 L 14.328125 -3.234375 L 27.125 -3.234375 L 27.125 0 L 1.03125 0 L 1.03125 -3.234375 L 9.046875 -3.234375 L 52.546875 -120.46875 L 66.546875 -120.46875 L 109.546875 -3.234375 L 117.390625 -3.234375 L 117.390625 0 L 61.59375 0 L 61.59375 -3.234375 Z M 45.046875 -88.546875 L 29 -43.84375 L 59.890625 -43.84375 Z M 45.046875 -88.546875 "/></g></g></g><g fill="#ffffff" fill-opacity="1"><g transform="translate(188.429599, 252.662403)"><g><path d="M 108.515625 -119.4375 L 110.21875 -76.609375 L 106.984375 -76.609375 C 101.972656 -91.734375 97.535156 -102.054688 93.671875 -107.578125 C 89.804688 -113.097656 84.234375 -115.859375 76.953125 -115.859375 L 74.90625 -115.859375 L 74.90625 -3.578125 L 89.40625 -3.578125 L 89.40625 0 L 27.125 0 L 27.125 -3.578125 L 41.625 -3.578125 L 41.625 -115.859375 L 39.421875 -115.859375 C 32.140625 -115.859375 26.503906 -112.984375 22.515625 -107.234375 C 18.535156 -101.492188 14.160156 -91.285156 9.390625 -76.609375 L 6.140625 -76.609375 L 7.84375 -119.4375 Z M 108.515625 -119.4375 "/></g></g></g></svg>